<svg xmlns="http://www.w3.org/2000/svg" viewBox="0 0 254.8 35.6">
  <defs>
    <style>
      .cls-1 {
        fill: #4885ed;
      }

      .cls-2 {
        fill: #db3236;
      }

      .cls-3 {
        fill: #f4c20d;
      }

      .cls-4 {
        fill: #3cba54;
      }

      .cls-5 {
        fill: #939598;
      }
    </style>
  </defs>
  <g id="integrationcards-googlecontact" transform="translate(-0.6 -0.2)">
    <g id="Group">
      <path id="path2998_5_" class="cls-1" d="M26.7,12.6H14.1v3.8h9c-.4,5.3-4.8,7.5-9,7.5a9.88,9.88,0,0,1-9.9-10A9.9,9.9,0,0,1,14.1,3.8a9.77,9.77,0,0,1,6.8,2.7l2.6-2.7A13.444,13.444,0,0,0,13.9,0,13.977,13.977,0,0,0,0,13.8,14.035,14.035,0,0,0,14.1,27.7c7.4,0,12.8-5.1,12.8-12.6a7.215,7.215,0,0,0-.2-2.5Z" transform="translate(0.6 0.2)"/>
      <path id="path3000_5_" class="cls-2" d="M9,17.8a8.9,8.9,0,0,1-6.525-2.7A9.063,9.063,0,0,1,0,8.8,8.771,8.771,0,0,1,8.9,0a9.292,9.292,0,0,1,6.075,2.275A8.733,8.733,0,0,1,17.9,8.9a8.842,8.842,0,0,1-2.613,6.4A8.923,8.923,0,0,1,9,17.8ZM9,3.5A5.141,5.141,0,0,0,3.9,8.9,5.2,5.2,0,0,0,9,14.3a5.092,5.092,0,0,0,5-5.4A5.092,5.092,0,0,0,9,3.5Z" transform="translate(28.8 10)"/>
      <path id="path3005_5_" class="cls-3" d="M9,17.8a8.9,8.9,0,0,1-6.525-2.7A9.063,9.063,0,0,1,0,8.8,8.771,8.771,0,0,1,8.9,0a9.289,9.289,0,0,1,6.038,2.275A8.717,8.717,0,0,1,17.9,8.9a8.842,8.842,0,0,1-2.613,6.4A8.923,8.923,0,0,1,9,17.8ZM8.9,3.5A5.141,5.141,0,0,0,3.8,8.9a5.2,5.2,0,0,0,5.1,5.4,5.091,5.091,0,0,0,5-5.4A5.091,5.091,0,0,0,8.9,3.5Z" transform="translate(48.3 10)"/>
      <path id="path3007_5_" class="cls-1" d="M8.7,25.7a8.455,8.455,0,0,1-5.163-1.625A9.272,9.272,0,0,1,.7,20.5l3.4-1.4a4.735,4.735,0,0,0,4.5,3.2c2.9,0,4.7-1.878,4.7-4.9V15.6a5.892,5.892,0,0,1-4.9,2.2,8.315,8.315,0,0,1-5.7-2.463A8.923,8.923,0,0,1,0,8.9,9.214,9.214,0,0,1,2.45,2.688,8.213,8.213,0,0,1,8.5,0a6.592,6.592,0,0,1,4.8,1.9V.4h3.8v16a9.748,9.748,0,0,1-2.437,7.013A8.127,8.127,0,0,1,8.7,25.7ZM8.9,3.4a5.151,5.151,0,0,0-5,5.4,5.106,5.106,0,0,0,4.9,5.4c2.385,0,4.8-1.855,4.8-5.4C13.6,5.42,11.21,3.4,8.9,3.4Z" transform="translate(67.7 10.1)"/>
      <path id="path3011_5_" class="cls-2" d="M8.7,17.8a8.729,8.729,0,0,1-6.038-2.35A8.755,8.755,0,0,1,0,8.9,9.157,9.157,0,0,1,2.462,2.463,8.053,8.053,0,0,1,8.3,0a7.328,7.328,0,0,1,4.575,1.563A8.07,8.07,0,0,1,15.5,5.3l.6,1.4L4.2,11.6a4.785,4.785,0,0,0,4.4,2.7A4.974,4.974,0,0,0,13,11.9l3.1,2a9.78,9.78,0,0,1-2.763,2.625A8.673,8.673,0,0,1,8.7,17.8ZM8.5,3.4A4.872,4.872,0,0,0,4.906,5.2,4.291,4.291,0,0,0,3.8,8.6l8-3.3A3.645,3.645,0,0,0,8.5,3.4Z" transform="translate(93 10)"/>
      <path id="path3015_5_" class="cls-4" d="M0,26.2H3.9V0H0Z" transform="translate(87.3 1.1)"/>
    </g>
    <g id="Group-2" data-name="Group" transform="translate(116 1)">
      <path id="Shape" class="cls-5" d="M13,26.1a12.65,12.65,0,0,1-13-13A12.587,12.587,0,0,1,3.7,3.8,12.671,12.671,0,0,1,13,0a11.706,11.706,0,0,1,9.2,4.1L19.9,6.3A8.433,8.433,0,0,0,13,3.1,9.421,9.421,0,0,0,6,5.9a9.8,9.8,0,0,0-2.8,7.2,9.58,9.58,0,0,0,9.8,10,9.789,9.789,0,0,0,7.6-3.7l2.3,2.3A12.158,12.158,0,0,1,18.5,25,13.838,13.838,0,0,1,13,26.1Z" transform="translate(0.7 0.8)"/>
      <path id="Shape-2" data-name="Shape" class="cls-5" d="M8.8,18.2a8.4,8.4,0,0,1-6.3-2.6A9.052,9.052,0,0,1,0,9.1,8.831,8.831,0,0,1,2.5,2.6,8.617,8.617,0,0,1,8.8,0a8.617,8.617,0,0,1,6.3,2.6,8.831,8.831,0,0,1,2.5,6.5,8.718,8.718,0,0,1-2.5,6.5A8.4,8.4,0,0,1,8.8,18.2ZM8.8,3a5.431,5.431,0,0,0-4,1.7A6.406,6.406,0,0,0,3.2,9.1a6.344,6.344,0,0,0,1.6,4.5,5.431,5.431,0,0,0,4,1.7,5.427,5.427,0,0,0,4-1.7,6.032,6.032,0,0,0,1.6-4.5,5.972,5.972,0,0,0-1.6-4.4A5.075,5.075,0,0,0,8.8,3Z" transform="translate(25.5 8.6)"/>
      <path id="Shape-3" data-name="Shape" class="cls-5" d="M0,.5H3.1V2.9h.1A5.927,5.927,0,0,1,5.5.8,6.094,6.094,0,0,1,8.7,0a6.186,6.186,0,0,1,4.8,1.8,7.293,7.293,0,0,1,1.7,5.1V17.7H11.9V7q-.15-4.2-4.2-4.2A3.76,3.76,0,0,0,4.5,4.4,6.162,6.162,0,0,0,3.2,8.1v9.5H0V.5Z" transform="translate(46.1 8.7)"/>
      <path id="Shape-4" data-name="Shape" class="cls-5" d="M7.9,22.6a4.752,4.752,0,0,1-3.5-1.3A4.9,4.9,0,0,1,3,17.7V8.1H0V5.2H3V0H6.2V5.2h4.2V8.1H6.2v8.5a2.884,2.884,0,0,0,.7,2.3,2.2,2.2,0,0,0,1.5.6,2.2,2.2,0,0,0,.8-.1c.2-.1.5-.1.7-.2l1,2.9A9.928,9.928,0,0,1,7.9,22.6Z" transform="translate(63.4 4)"/>
      <path id="Shape-5" data-name="Shape" class="cls-5" d="M6.6,18.1a6.8,6.8,0,0,1-4.7-1.7A5.2,5.2,0,0,1,0,12.2,5.034,5.034,0,0,1,2,8,8.651,8.651,0,0,1,7.4,6.4a9.252,9.252,0,0,1,4.7,1V6.7a3.406,3.406,0,0,0-1.3-2.8A4.931,4.931,0,0,0,7.7,2.7,5.086,5.086,0,0,0,3.4,5L.6,3.2A7.843,7.843,0,0,1,7.4,0,7.739,7.739,0,0,1,13,1.9a6.7,6.7,0,0,1,2.1,5.2V17.6H12V15.2h-.1A6,6,0,0,1,6.6,18.1ZM7.9,9.2a5.846,5.846,0,0,0-3.3.9,2.712,2.712,0,0,0-1.3,2.4,2.749,2.749,0,0,0,1.1,2.1,3.585,3.585,0,0,0,2.5.8,4.928,4.928,0,0,0,3.6-1.5,4.584,4.584,0,0,0,1.6-3.5A6.59,6.59,0,0,0,7.9,9.2Z" transform="translate(75.9 8.6)"/>
      <path id="Shape-6" data-name="Shape" class="cls-5" d="M8.8,18.2a8.6,8.6,0,0,1-6.3-2.6A8.977,8.977,0,0,1,0,9.1,8.819,8.819,0,0,1,2.5,2.6,8.6,8.6,0,0,1,8.8,0a7.992,7.992,0,0,1,4.6,1.3,7.9,7.9,0,0,1,2.9,3.6L13.4,6.1A4.869,4.869,0,0,0,8.6,2.9,4.926,4.926,0,0,0,4.8,4.7,6.784,6.784,0,0,0,3.2,9.1a6.29,6.29,0,0,0,1.6,4.4,4.926,4.926,0,0,0,3.8,1.8,5.128,5.128,0,0,0,5-3.2l2.9,1.2a7.516,7.516,0,0,1-3,3.6A8.92,8.92,0,0,1,8.8,18.2Z" transform="translate(93.8 8.7)"/>
      <path id="Shape-7" data-name="Shape" class="cls-5" d="M7.9,22.6a4.752,4.752,0,0,1-3.5-1.3A4.9,4.9,0,0,1,3,17.7V8.1H0V5.2H3V0H6.2V5.2h4.2V8.1H6.2v8.5a2.884,2.884,0,0,0,.7,2.3,2.2,2.2,0,0,0,1.5.6,2.2,2.2,0,0,0,.8-.1c.2-.1.5-.1.7-.2l1,2.9A9.427,9.427,0,0,1,7.9,22.6Z" transform="translate(112.1 4)"/>
      <path id="Shape-8" data-name="Shape" class="cls-5" d="M14.2,12.8a4.841,4.841,0,0,1-2,3.8,7.735,7.735,0,0,1-4.9,1.5,7.675,7.675,0,0,1-4.5-1.3A7.957,7.957,0,0,1,0,13.3l2.9-1.2a5.46,5.46,0,0,0,1.8,2.4,4.317,4.317,0,0,0,2.6.9,4.406,4.406,0,0,0,2.6-.7,1.818,1.818,0,0,0,1-1.6c0-1.1-.8-1.9-2.5-2.4L5.5,10C2.2,9.2.5,7.6.5,5.2A4.472,4.472,0,0,1,2.4,1.4,8.352,8.352,0,0,1,7.3,0a8.107,8.107,0,0,1,4.1,1.1A6.073,6.073,0,0,1,14,4L11.1,5.2A3.748,3.748,0,0,0,9.5,3.5,5.135,5.135,0,0,0,7,2.9a4.645,4.645,0,0,0-2.3.6A1.681,1.681,0,0,0,3.7,5c0,1,.9,1.7,2.8,2.1l2.6.7C12.5,8.6,14.2,10.3,14.2,12.8Z" transform="translate(125.2 8.7)"/>
    </g>
  </g>
</svg>
