<?xml version="1.0" encoding="utf-8"?>
<!-- Generator: Adobe Illustrator 22.1.0, SVG Export Plug-In . SVG Version: 6.00 Build 0)  -->
<svg version="1.1"
	 id="Layer_1" inkscape:version="0.48.2 r9819" sodipodi:docname="Outlook_logo.svg" xmlns:cc="http://creativecommons.org/ns#" xmlns:dc="http://purl.org/dc/elements/1.1/" xmlns:inkscape="http://www.inkscape.org/namespaces/inkscape" xmlns:rdf="http://www.w3.org/1999/02/22-rdf-syntax-ns#" xmlns:sodipodi="http://sodipodi.sourceforge.net/DTD/sodipodi-0.dtd" xmlns:svg="http://www.w3.org/2000/svg"
	 xmlns="http://www.w3.org/2000/svg" xmlns:xlink="http://www.w3.org/1999/xlink" x="0px" y="0px" viewBox="0 0 510 104.3"
	 style="enable-background:new 0 0 510 104.3;" xml:space="preserve">
<style type="text/css">
	.st0{fill:#0072C6;}
</style>
<sodipodi:namedview  bordercolor="#666666" borderopacity="1" fit-margin-bottom="0" fit-margin-left="0" fit-margin-right="0" fit-margin-top="0" gridtolerance="10" guidetolerance="10" id="namedview41" inkscape:current-layer="Layer_1" inkscape:cx="91.559" inkscape:cy="89.87632" inkscape:pageopacity="0" inkscape:pageshadow="2" inkscape:window-height="837" inkscape:window-maximized="1" inkscape:window-width="1600" inkscape:window-x="-8" inkscape:window-y="-8" inkscape:zoom="1" objecttolerance="10" pagecolor="#ffffff" showgrid="false">
	</sodipodi:namedview>
<path id="path3" inkscape:connector-curvature="0" class="st0" d="M64.6,22.1v20.4l7.1,4.5c0.2,0.1,0.6,0.1,0.8,0l30.7-20.7
	c0-2.4-2.3-4.2-3.6-4.2C99.6,22.1,64.6,22.1,64.6,22.1z"/>
<path id="path5" inkscape:connector-curvature="0" class="st0" d="M64.6,50.1l6.5,4.5c0.9,0.7,2,0,2,0c-1.1,0.7,30.1-20,30.1-20
	v37.5c0,4.1-2.6,5.8-5.6,5.8H64.6L64.6,50.1L64.6,50.1z"/>
<g id="g7" transform="matrix(3.9178712,0,0,3.9178712,-13.481395,-41.384474)">
	<path id="path9" inkscape:connector-curvature="0" class="st0" d="M47.7,34c-2.8,0-5-0.9-6.7-2.7s-2.5-4.2-2.5-7.1
		c0-3.2,0.9-5.7,2.6-7.5c1.7-1.9,4-2.8,7-2.8c2.7,0,4.9,0.9,6.5,2.7c1.7,1.8,2.5,4.2,2.5,7.1c0,3.2-0.8,5.7-2.5,7.6
		C52.8,33.1,50.6,34,47.7,34z M47.9,15.8c-2.1,0-3.7,0.7-5,2.2c-1.3,1.5-1.9,3.4-1.9,5.9c0,2.4,0.6,4.4,1.9,5.8
		c1.3,1.5,2.9,2.2,4.9,2.2c2.2,0,3.8-0.7,5.1-2.1c1.2-1.4,1.9-3.4,1.9-5.9c0-2.6-0.6-4.6-1.8-6C51.6,16.5,50,15.8,47.9,15.8z"/>
	<path id="path11" inkscape:connector-curvature="0" class="st0" d="M71.2,33.7H69v-2.2h-0.1C68,33.2,66.6,34,64.6,34
		c-3.3,0-5-2-5-6v-8.4h2.2v8c0,3,1.1,4.4,3.4,4.4c1.1,0,2-0.4,2.7-1.2c0.7-0.8,1.1-1.9,1.1-3.2v-8.1h2.2L71.2,33.7L71.2,33.7z"/>
	<path id="path13" inkscape:connector-curvature="0" class="st0" d="M81.6,33.6C81,33.8,80.3,34,79.5,34c-2.5,0-3.7-1.4-3.7-4.1
		v-8.3h-2.4v-1.9h2.4v-3.4l2.2-0.7v4.1h3.5v1.9H78v7.9c0,0.9,0.2,1.6,0.5,2c0.3,0.4,0.8,0.6,1.6,0.6c0.6,0,1.1-0.2,1.5-0.5
		L81.6,33.6L81.6,33.6z"/>
</g>
<g id="g23" transform="matrix(3.9178712,0,0,3.9178712,-13.481395,-41.384474)">
	<path id="path25" inkscape:connector-curvature="0" class="st0" d="M11.3,21c-0.6,0-1,0.3-1.4,0.8S9.5,23,9.5,23.9
		c0,0.9,0.2,1.6,0.5,2.1c0.3,0.5,0.8,0.8,1.3,0.8c0.6,0,1-0.3,1.3-0.8s0.5-1.2,0.5-2.1c0-0.9-0.2-1.7-0.5-2.2
		C12.3,21.2,11.9,21,11.3,21z"/>
	<path id="path27" inkscape:connector-curvature="0" class="st0" d="M3.4,13.6v20.4l15.5,3.3V10.6L3.4,13.6z M13.8,27.2
		c-0.7,0.9-1.5,1.3-2.6,1.3c-1,0-1.9-0.4-2.5-1.3c-0.6-0.8-1-1.9-1-3.3c0-1.4,0.3-2.6,1-3.4c0.7-0.9,1.5-1.3,2.6-1.3
		c1,0,1.9,0.4,2.5,1.3c0.6,0.8,0.9,1.9,0.9,3.3C14.8,25.2,14.5,26.3,13.8,27.2z"/>
</g>
<g id="g29" transform="matrix(3.9178712,0,0,3.9178712,-13.481395,-41.384474)">
	<path id="path31" inkscape:connector-curvature="0" class="st0" d="M86.7,33.7h-2.2V13h2.2L86.7,33.7L86.7,33.7z"/>
	<path id="path33" inkscape:connector-curvature="0" class="st0" d="M96.4,34c-2.1,0-3.7-0.7-5-2s-1.9-3-1.9-5.2
		c0-2.4,0.6-4.2,1.9-5.5c1.3-1.3,3-2,5.2-2c2.1,0,3.7,0.6,4.9,1.9c1.2,1.3,1.8,3.1,1.8,5.3c0,2.2-0.6,4-1.9,5.4
		C100.3,33.3,98.6,34,96.4,34L96.4,34z M96.6,21.2c-1.4,0-2.6,0.5-3.4,1.5c-0.8,1-1.3,2.3-1.3,4.1c0,1.7,0.4,3,1.3,3.9
		s2,1.4,3.4,1.4c1.4,0,2.6-0.5,3.3-1.4c0.8-0.9,1.2-2.3,1.2-4c0-1.8-0.4-3.1-1.2-4C99.2,21.7,98,21.2,96.6,21.2z"/>
	<path id="path35" inkscape:connector-curvature="0" class="st0" d="M112.1,34c-2.1,0-3.7-0.7-5-2s-1.9-3-1.9-5.2
		c0-2.4,0.6-4.2,1.9-5.5c1.3-1.3,3-2,5.2-2c2.1,0,3.7,0.6,4.9,1.9s1.8,3.1,1.8,5.3c0,2.2-0.6,4-1.9,5.4C116,33.3,114.3,34,112.1,34
		L112.1,34z M112.3,21.2c-1.4,0-2.6,0.5-3.4,1.5c-0.8,1-1.3,2.3-1.3,4.1c0,1.7,0.4,3,1.3,3.9s2,1.4,3.4,1.4c1.4,0,2.6-0.5,3.3-1.4
		c0.8-0.9,1.2-2.3,1.2-4c0-1.8-0.4-3.1-1.2-4C114.9,21.7,113.8,21.2,112.3,21.2L112.3,21.2z"/>
	<path id="path37" inkscape:connector-curvature="0" class="st0" d="M133.6,33.7h-3.1l-6.2-6.7h-0.1v6.7H122V13h2.2v13.1h0.1
		l5.9-6.4h2.9l-6.5,6.8L133.6,33.7z"/>
</g>
</svg>
